<svg xmlns="http://www.w3.org/2000/svg" xmlns:xlink="http://www.w3.org/1999/xlink" width="600" height="400" viewBox="0 0 2400 1600">
<defs>
  <clipPath id="clip620">
    <rect x="0" y="0" width="2400" height="1600"></rect>
  </clipPath>
</defs>
<path clip-path="url(#clip620)" d="M0 1600 L2400 1600 L2400 0 L0 0  Z" fill="#ffffff" fill-rule="evenodd" fill-opacity="1"></path>
<defs>
  <clipPath id="clip621">
    <rect x="480" y="0" width="1681" height="1600"></rect>
  </clipPath>
</defs>
<path clip-path="url(#clip620)" d="M460.563 1360.19 L2289.76 1360.19 L2289.76 186.464 L460.563 186.464  Z" fill="#ffffff" fill-rule="evenodd" fill-opacity="1"></path>
<defs>
  <clipPath id="clip622">
    <rect x="460" y="186" width="1830" height="1175"></rect>
  </clipPath>
</defs>
<polyline clip-path="url(#clip622)" style="stroke:#000000; stroke-linecap:round; stroke-linejoin:round; stroke-width:2; stroke-opacity:0.1; fill:none" points="764.869,1360.19 764.869,186.464 "></polyline>
<polyline clip-path="url(#clip622)" style="stroke:#000000; stroke-linecap:round; stroke-linejoin:round; stroke-width:2; stroke-opacity:0.1; fill:none" points="1185.76,1360.19 1185.76,186.464 "></polyline>
<polyline clip-path="url(#clip622)" style="stroke:#000000; stroke-linecap:round; stroke-linejoin:round; stroke-width:2; stroke-opacity:0.1; fill:none" points="1606.65,1360.19 1606.65,186.464 "></polyline>
<polyline clip-path="url(#clip622)" style="stroke:#000000; stroke-linecap:round; stroke-linejoin:round; stroke-width:2; stroke-opacity:0.1; fill:none" points="2027.55,1360.19 2027.55,186.464 "></polyline>
<polyline clip-path="url(#clip620)" style="stroke:#000000; stroke-linecap:round; stroke-linejoin:round; stroke-width:4; stroke-opacity:1; fill:none" points="460.563,1360.19 2289.76,1360.19 "></polyline>
<polyline clip-path="url(#clip620)" style="stroke:#000000; stroke-linecap:round; stroke-linejoin:round; stroke-width:4; stroke-opacity:1; fill:none" points="764.869,1360.19 764.869,1341.29 "></polyline>
<polyline clip-path="url(#clip620)" style="stroke:#000000; stroke-linecap:round; stroke-linejoin:round; stroke-width:4; stroke-opacity:1; fill:none" points="1185.76,1360.19 1185.76,1341.29 "></polyline>
<polyline clip-path="url(#clip620)" style="stroke:#000000; stroke-linecap:round; stroke-linejoin:round; stroke-width:4; stroke-opacity:1; fill:none" points="1606.65,1360.19 1606.65,1341.29 "></polyline>
<polyline clip-path="url(#clip620)" style="stroke:#000000; stroke-linecap:round; stroke-linejoin:round; stroke-width:4; stroke-opacity:1; fill:none" points="2027.55,1360.19 2027.55,1341.29 "></polyline>
<path clip-path="url(#clip620)" d="M713.48 1418.65 L729.799 1418.65 L729.799 1422.59 L707.855 1422.59 L707.855 1418.65 Q710.517 1415.9 715.1 1411.27 Q719.707 1406.62 720.887 1405.27 Q723.133 1402.75 724.012 1401.01 Q724.915 1399.25 724.915 1397.56 Q724.915 1394.81 722.971 1393.07 Q721.049 1391.34 717.947 1391.34 Q715.748 1391.34 713.295 1392.1 Q710.864 1392.87 708.086 1394.42 L708.086 1389.69 Q710.91 1388.56 713.364 1387.98 Q715.818 1387.4 717.855 1387.4 Q723.225 1387.4 726.42 1390.09 Q729.614 1392.77 729.614 1397.26 Q729.614 1399.39 728.804 1401.31 Q728.017 1403.21 725.91 1405.81 Q725.332 1406.48 722.23 1409.69 Q719.128 1412.89 713.48 1418.65 Z" fill="#000000" fill-rule="nonzero" fill-opacity="1"></path><path clip-path="url(#clip620)" d="M749.614 1391.11 Q746.003 1391.11 744.174 1394.67 Q742.369 1398.21 742.369 1405.34 Q742.369 1412.45 744.174 1416.01 Q746.003 1419.56 749.614 1419.56 Q753.248 1419.56 755.054 1416.01 Q756.882 1412.45 756.882 1405.34 Q756.882 1398.21 755.054 1394.67 Q753.248 1391.11 749.614 1391.11 M749.614 1387.4 Q755.424 1387.4 758.48 1392.01 Q761.558 1396.59 761.558 1405.34 Q761.558 1414.07 758.48 1418.68 Q755.424 1423.26 749.614 1423.26 Q743.804 1423.26 740.725 1418.68 Q737.67 1414.07 737.67 1405.34 Q737.67 1396.59 740.725 1392.01 Q743.804 1387.4 749.614 1387.4 Z" fill="#000000" fill-rule="nonzero" fill-opacity="1"></path><path clip-path="url(#clip620)" d="M783.942 1403.95 Q787.299 1404.67 789.174 1406.94 Q791.072 1409.21 791.072 1412.54 Q791.072 1417.66 787.554 1420.46 Q784.035 1423.26 777.554 1423.26 Q775.378 1423.26 773.063 1422.82 Q770.771 1422.4 768.318 1421.55 L768.318 1417.03 Q770.262 1418.17 772.577 1418.75 Q774.892 1419.32 777.415 1419.32 Q781.813 1419.32 784.105 1417.59 Q786.419 1415.85 786.419 1412.54 Q786.419 1409.49 784.267 1407.77 Q782.137 1406.04 778.318 1406.04 L774.29 1406.04 L774.29 1402.19 L778.503 1402.19 Q781.952 1402.19 783.78 1400.83 Q785.609 1399.44 785.609 1396.85 Q785.609 1394.19 783.711 1392.77 Q781.836 1391.34 778.318 1391.34 Q776.396 1391.34 774.197 1391.75 Q771.998 1392.17 769.359 1393.05 L769.359 1388.88 Q772.021 1388.14 774.336 1387.77 Q776.674 1387.4 778.734 1387.4 Q784.058 1387.4 787.16 1389.83 Q790.262 1392.24 790.262 1396.36 Q790.262 1399.23 788.618 1401.22 Q786.975 1403.19 783.942 1403.95 Z" fill="#000000" fill-rule="nonzero" fill-opacity="1"></path><path clip-path="url(#clip620)" d="M809.938 1391.11 Q806.327 1391.11 804.498 1394.67 Q802.692 1398.21 802.692 1405.34 Q802.692 1412.45 804.498 1416.01 Q806.327 1419.56 809.938 1419.56 Q813.572 1419.56 815.377 1416.01 Q817.206 1412.45 817.206 1405.34 Q817.206 1398.21 815.377 1394.67 Q813.572 1391.11 809.938 1391.11 M809.938 1387.4 Q815.748 1387.4 818.803 1392.01 Q821.882 1396.59 821.882 1405.34 Q821.882 1414.07 818.803 1418.68 Q815.748 1423.26 809.938 1423.26 Q804.128 1423.26 801.049 1418.68 Q797.993 1414.07 797.993 1405.34 Q797.993 1396.59 801.049 1392.01 Q804.128 1387.4 809.938 1387.4 Z" fill="#000000" fill-rule="nonzero" fill-opacity="1"></path><path clip-path="url(#clip620)" d="M1134.37 1418.65 L1150.69 1418.65 L1150.69 1422.59 L1128.75 1422.59 L1128.75 1418.65 Q1131.41 1415.9 1135.99 1411.27 Q1140.6 1406.62 1141.78 1405.27 Q1144.03 1402.75 1144.91 1401.01 Q1145.81 1399.25 1145.81 1397.56 Q1145.81 1394.81 1143.86 1393.07 Q1141.94 1391.34 1138.84 1391.34 Q1136.64 1391.34 1134.19 1392.1 Q1131.76 1392.87 1128.98 1394.42 L1128.98 1389.69 Q1131.8 1388.56 1134.26 1387.98 Q1136.71 1387.4 1138.75 1387.4 Q1144.12 1387.4 1147.31 1390.09 Q1150.51 1392.77 1150.51 1397.26 Q1150.51 1399.39 1149.7 1401.31 Q1148.91 1403.21 1146.8 1405.81 Q1146.22 1406.48 1143.12 1409.69 Q1140.02 1412.89 1134.37 1418.65 Z" fill="#000000" fill-rule="nonzero" fill-opacity="1"></path><path clip-path="url(#clip620)" d="M1170.51 1391.11 Q1166.9 1391.11 1165.07 1394.67 Q1163.26 1398.21 1163.26 1405.34 Q1163.26 1412.45 1165.07 1416.01 Q1166.9 1419.56 1170.51 1419.56 Q1174.14 1419.56 1175.95 1416.01 Q1177.78 1412.45 1177.78 1405.34 Q1177.78 1398.21 1175.95 1394.67 Q1174.14 1391.11 1170.51 1391.11 M1170.51 1387.4 Q1176.32 1387.4 1179.37 1392.01 Q1182.45 1396.59 1182.45 1405.34 Q1182.45 1414.07 1179.37 1418.68 Q1176.32 1423.26 1170.51 1423.26 Q1164.7 1423.26 1161.62 1418.68 Q1158.56 1414.07 1158.56 1405.34 Q1158.56 1396.59 1161.62 1392.01 Q1164.7 1387.4 1170.51 1387.4 Z" fill="#000000" fill-rule="nonzero" fill-opacity="1"></path><path clip-path="url(#clip620)" d="M1203.52 1392.1 L1191.71 1410.55 L1203.52 1410.55 L1203.52 1392.1 M1202.29 1388.03 L1208.17 1388.03 L1208.17 1410.55 L1213.1 1410.55 L1213.1 1414.44 L1208.17 1414.44 L1208.17 1422.59 L1203.52 1422.59 L1203.52 1414.44 L1187.91 1414.44 L1187.91 1409.93 L1202.29 1388.03 Z" fill="#000000" fill-rule="nonzero" fill-opacity="1"></path><path clip-path="url(#clip620)" d="M1230.83 1391.11 Q1227.22 1391.11 1225.39 1394.67 Q1223.59 1398.21 1223.59 1405.34 Q1223.59 1412.45 1225.39 1416.01 Q1227.22 1419.56 1230.83 1419.56 Q1234.46 1419.56 1236.27 1416.01 Q1238.1 1412.45 1238.1 1405.34 Q1238.1 1398.21 1236.27 1394.67 Q1234.46 1391.11 1230.83 1391.11 M1230.83 1387.4 Q1236.64 1387.4 1239.7 1392.01 Q1242.78 1396.59 1242.78 1405.34 Q1242.78 1414.07 1239.7 1418.68 Q1236.64 1423.26 1230.83 1423.26 Q1225.02 1423.26 1221.94 1418.68 Q1218.89 1414.07 1218.89 1405.34 Q1218.89 1396.59 1221.94 1392.01 Q1225.02 1387.4 1230.83 1387.4 Z" fill="#000000" fill-rule="nonzero" fill-opacity="1"></path><path clip-path="url(#clip620)" d="M1555.27 1418.65 L1571.59 1418.65 L1571.59 1422.59 L1549.64 1422.59 L1549.64 1418.65 Q1552.3 1415.9 1556.89 1411.27 Q1561.49 1406.62 1562.67 1405.27 Q1564.92 1402.75 1565.8 1401.01 Q1566.7 1399.25 1566.7 1397.56 Q1566.7 1394.81 1564.76 1393.07 Q1562.84 1391.34 1559.73 1391.34 Q1557.53 1391.34 1555.08 1392.1 Q1552.65 1392.87 1549.87 1394.42 L1549.87 1389.69 Q1552.7 1388.56 1555.15 1387.98 Q1557.6 1387.4 1559.64 1387.4 Q1565.01 1387.4 1568.21 1390.09 Q1571.4 1392.77 1571.4 1397.26 Q1571.4 1399.39 1570.59 1401.31 Q1569.8 1403.21 1567.7 1405.81 Q1567.12 1406.48 1564.02 1409.69 Q1560.91 1412.89 1555.27 1418.65 Z" fill="#000000" fill-rule="nonzero" fill-opacity="1"></path><path clip-path="url(#clip620)" d="M1591.4 1391.11 Q1587.79 1391.11 1585.96 1394.67 Q1584.15 1398.21 1584.15 1405.34 Q1584.15 1412.45 1585.96 1416.01 Q1587.79 1419.56 1591.4 1419.56 Q1595.03 1419.56 1596.84 1416.01 Q1598.67 1412.45 1598.67 1405.34 Q1598.67 1398.21 1596.84 1394.67 Q1595.03 1391.11 1591.4 1391.11 M1591.4 1387.4 Q1597.21 1387.4 1600.27 1392.01 Q1603.34 1396.59 1603.34 1405.34 Q1603.34 1414.07 1600.27 1418.68 Q1597.21 1423.26 1591.4 1423.26 Q1585.59 1423.26 1582.51 1418.68 Q1579.46 1414.07 1579.46 1405.34 Q1579.46 1396.59 1582.51 1392.01 Q1585.59 1387.4 1591.4 1387.4 Z" fill="#000000" fill-rule="nonzero" fill-opacity="1"></path><path clip-path="url(#clip620)" d="M1611.61 1388.03 L1629.96 1388.03 L1629.96 1391.96 L1615.89 1391.96 L1615.89 1400.44 Q1616.91 1400.09 1617.93 1399.93 Q1618.95 1399.74 1619.96 1399.74 Q1625.75 1399.74 1629.13 1402.91 Q1632.51 1406.08 1632.51 1411.5 Q1632.51 1417.08 1629.04 1420.18 Q1625.57 1423.26 1619.25 1423.26 Q1617.07 1423.26 1614.8 1422.89 Q1612.56 1422.52 1610.15 1421.78 L1610.15 1417.08 Q1612.23 1418.21 1614.46 1418.77 Q1616.68 1419.32 1619.15 1419.32 Q1623.16 1419.32 1625.5 1417.22 Q1627.83 1415.11 1627.83 1411.5 Q1627.83 1407.89 1625.5 1405.78 Q1623.16 1403.68 1619.15 1403.68 Q1617.28 1403.68 1615.4 1404.09 Q1613.55 1404.51 1611.61 1405.39 L1611.61 1388.03 Z" fill="#000000" fill-rule="nonzero" fill-opacity="1"></path><path clip-path="url(#clip620)" d="M1651.72 1391.11 Q1648.11 1391.11 1646.28 1394.67 Q1644.48 1398.21 1644.48 1405.34 Q1644.48 1412.45 1646.28 1416.01 Q1648.11 1419.56 1651.72 1419.56 Q1655.36 1419.56 1657.16 1416.01 Q1658.99 1412.45 1658.99 1405.34 Q1658.99 1398.21 1657.16 1394.67 Q1655.36 1391.11 1651.72 1391.11 M1651.72 1387.4 Q1657.53 1387.4 1660.59 1392.01 Q1663.67 1396.59 1663.67 1405.34 Q1663.67 1414.07 1660.59 1418.68 Q1657.53 1423.26 1651.72 1423.26 Q1645.91 1423.26 1642.83 1418.68 Q1639.78 1414.07 1639.78 1405.34 Q1639.78 1396.59 1642.83 1392.01 Q1645.91 1387.4 1651.72 1387.4 Z" fill="#000000" fill-rule="nonzero" fill-opacity="1"></path><path clip-path="url(#clip620)" d="M1976.16 1418.65 L1992.48 1418.65 L1992.48 1422.59 L1970.53 1422.59 L1970.53 1418.65 Q1973.2 1415.9 1977.78 1411.27 Q1982.39 1406.62 1983.57 1405.27 Q1985.81 1402.75 1986.69 1401.01 Q1987.59 1399.25 1987.59 1397.56 Q1987.59 1394.81 1985.65 1393.07 Q1983.73 1391.34 1980.63 1391.34 Q1978.43 1391.34 1975.97 1392.1 Q1973.54 1392.87 1970.77 1394.42 L1970.77 1389.69 Q1973.59 1388.56 1976.04 1387.98 Q1978.5 1387.4 1980.53 1387.4 Q1985.9 1387.4 1989.1 1390.09 Q1992.29 1392.77 1992.29 1397.26 Q1992.29 1399.39 1991.48 1401.31 Q1990.7 1403.21 1988.59 1405.81 Q1988.01 1406.48 1984.91 1409.69 Q1981.81 1412.89 1976.16 1418.65 Z" fill="#000000" fill-rule="nonzero" fill-opacity="1"></path><path clip-path="url(#clip620)" d="M2012.29 1391.11 Q2008.68 1391.11 2006.85 1394.67 Q2005.05 1398.21 2005.05 1405.34 Q2005.05 1412.45 2006.85 1416.01 Q2008.68 1419.56 2012.29 1419.56 Q2015.93 1419.56 2017.73 1416.01 Q2019.56 1412.45 2019.56 1405.34 Q2019.56 1398.21 2017.73 1394.67 Q2015.93 1391.11 2012.29 1391.11 M2012.29 1387.4 Q2018.1 1387.4 2021.16 1392.01 Q2024.24 1396.59 2024.24 1405.34 Q2024.24 1414.07 2021.16 1418.68 Q2018.1 1423.26 2012.29 1423.26 Q2006.48 1423.26 2003.4 1418.68 Q2000.35 1414.07 2000.35 1405.34 Q2000.35 1396.59 2003.4 1392.01 Q2006.48 1387.4 2012.29 1387.4 Z" fill="#000000" fill-rule="nonzero" fill-opacity="1"></path><path clip-path="url(#clip620)" d="M2043.03 1403.44 Q2039.89 1403.44 2038.03 1405.6 Q2036.2 1407.75 2036.2 1411.5 Q2036.2 1415.23 2038.03 1417.4 Q2039.89 1419.56 2043.03 1419.56 Q2046.18 1419.56 2048.01 1417.4 Q2049.86 1415.23 2049.86 1411.5 Q2049.86 1407.75 2048.01 1405.6 Q2046.18 1403.44 2043.03 1403.44 M2052.32 1388.79 L2052.32 1393.05 Q2050.56 1392.22 2048.75 1391.78 Q2046.97 1391.34 2045.21 1391.34 Q2040.58 1391.34 2038.13 1394.46 Q2035.7 1397.59 2035.35 1403.91 Q2036.71 1401.89 2038.77 1400.83 Q2040.83 1399.74 2043.31 1399.74 Q2048.52 1399.74 2051.53 1402.91 Q2054.56 1406.06 2054.56 1411.5 Q2054.56 1416.82 2051.41 1420.04 Q2048.26 1423.26 2043.03 1423.26 Q2037.04 1423.26 2033.87 1418.68 Q2030.7 1414.07 2030.7 1405.34 Q2030.7 1397.15 2034.58 1392.29 Q2038.47 1387.4 2045.02 1387.4 Q2046.78 1387.4 2048.57 1387.75 Q2050.37 1388.1 2052.32 1388.79 Z" fill="#000000" fill-rule="nonzero" fill-opacity="1"></path><path clip-path="url(#clip620)" d="M2072.62 1391.11 Q2069.01 1391.11 2067.18 1394.67 Q2065.37 1398.21 2065.37 1405.34 Q2065.37 1412.45 2067.18 1416.01 Q2069.01 1419.56 2072.62 1419.56 Q2076.25 1419.56 2078.06 1416.01 Q2079.89 1412.45 2079.89 1405.34 Q2079.89 1398.21 2078.06 1394.67 Q2076.25 1391.11 2072.62 1391.11 M2072.62 1387.4 Q2078.43 1387.4 2081.48 1392.01 Q2084.56 1396.59 2084.56 1405.34 Q2084.56 1414.07 2081.48 1418.68 Q2078.43 1423.26 2072.62 1423.26 Q2066.81 1423.26 2063.73 1418.68 Q2060.67 1414.07 2060.67 1405.34 Q2060.67 1396.59 2063.73 1392.01 Q2066.81 1387.4 2072.62 1387.4 Z" fill="#000000" fill-rule="nonzero" fill-opacity="1"></path><path clip-path="url(#clip620)" d="M1306.1 1457.53 L1313 1457.53 L1326.18 1477.07 L1339.26 1457.53 L1346.17 1457.53 L1329.36 1482.42 L1329.36 1505.05 L1322.9 1505.05 L1322.9 1482.42 L1306.1 1457.53 Z" fill="#000000" fill-rule="nonzero" fill-opacity="1"></path><path clip-path="url(#clip620)" d="M1374.02 1485.76 L1374.02 1488.63 L1347.09 1488.63 Q1347.47 1494.68 1350.72 1497.86 Q1354 1501.01 1359.82 1501.01 Q1363.2 1501.01 1366.35 1500.18 Q1369.53 1499.35 1372.65 1497.7 L1372.65 1503.24 Q1369.5 1504.57 1366.19 1505.27 Q1362.88 1505.97 1359.47 1505.97 Q1350.94 1505.97 1345.94 1501.01 Q1340.98 1496.04 1340.98 1487.58 Q1340.98 1478.83 1345.69 1473.7 Q1350.43 1468.54 1358.45 1468.54 Q1365.65 1468.54 1369.82 1473.19 Q1374.02 1477.81 1374.02 1485.76 M1368.16 1484.04 Q1368.1 1479.24 1365.46 1476.37 Q1362.85 1473.51 1358.52 1473.51 Q1353.62 1473.51 1350.66 1476.28 Q1347.73 1479.05 1347.28 1484.08 L1368.16 1484.04 Z" fill="#000000" fill-rule="nonzero" fill-opacity="1"></path><path clip-path="url(#clip620)" d="M1399.83 1487.13 Q1392.73 1487.13 1390 1488.76 Q1387.26 1490.38 1387.26 1494.29 Q1387.26 1497.41 1389.3 1499.26 Q1391.36 1501.07 1394.9 1501.07 Q1399.77 1501.07 1402.7 1497.64 Q1405.66 1494.17 1405.66 1488.44 L1405.66 1487.13 L1399.83 1487.13 M1411.51 1484.71 L1411.51 1505.05 L1405.66 1505.05 L1405.66 1499.64 Q1403.65 1502.89 1400.66 1504.45 Q1397.67 1505.97 1393.34 1505.97 Q1387.86 1505.97 1384.62 1502.92 Q1381.4 1499.83 1381.4 1494.68 Q1381.4 1488.66 1385.41 1485.6 Q1389.45 1482.55 1397.44 1482.55 L1405.66 1482.55 L1405.66 1481.98 Q1405.66 1477.93 1402.98 1475.74 Q1400.34 1473.51 1395.53 1473.51 Q1392.48 1473.51 1389.58 1474.24 Q1386.69 1474.97 1384.01 1476.44 L1384.01 1471.03 Q1387.23 1469.79 1390.25 1469.18 Q1393.27 1468.54 1396.14 1468.54 Q1403.87 1468.54 1407.69 1472.55 Q1411.51 1476.57 1411.51 1484.71 Z" fill="#000000" fill-rule="nonzero" fill-opacity="1"></path><path clip-path="url(#clip620)" d="M1444.23 1474.88 Q1443.24 1474.31 1442.07 1474.05 Q1440.92 1473.76 1439.52 1473.76 Q1434.56 1473.76 1431.88 1477.01 Q1429.24 1480.23 1429.24 1486.27 L1429.24 1505.05 L1423.35 1505.05 L1423.35 1469.4 L1429.24 1469.4 L1429.24 1474.94 Q1431.09 1471.7 1434.05 1470.14 Q1437.01 1468.54 1441.24 1468.54 Q1441.84 1468.54 1442.58 1468.64 Q1443.31 1468.7 1444.2 1468.86 L1444.23 1474.88 Z" fill="#000000" fill-rule="nonzero" fill-opacity="1"></path><polyline clip-path="url(#clip622)" style="stroke:#000000; stroke-linecap:round; stroke-linejoin:round; stroke-width:2; stroke-opacity:0.1; fill:none" points="460.563,1337.39 2289.76,1337.39 "></polyline>
<polyline clip-path="url(#clip622)" style="stroke:#000000; stroke-linecap:round; stroke-linejoin:round; stroke-width:2; stroke-opacity:0.1; fill:none" points="460.563,1105.8 2289.76,1105.8 "></polyline>
<polyline clip-path="url(#clip622)" style="stroke:#000000; stroke-linecap:round; stroke-linejoin:round; stroke-width:2; stroke-opacity:0.1; fill:none" points="460.563,874.215 2289.76,874.215 "></polyline>
<polyline clip-path="url(#clip622)" style="stroke:#000000; stroke-linecap:round; stroke-linejoin:round; stroke-width:2; stroke-opacity:0.1; fill:none" points="460.563,642.627 2289.76,642.627 "></polyline>
<polyline clip-path="url(#clip622)" style="stroke:#000000; stroke-linecap:round; stroke-linejoin:round; stroke-width:2; stroke-opacity:0.1; fill:none" points="460.563,411.039 2289.76,411.039 "></polyline>
<polyline clip-path="url(#clip620)" style="stroke:#000000; stroke-linecap:round; stroke-linejoin:round; stroke-width:4; stroke-opacity:1; fill:none" points="460.563,1360.19 460.563,186.464 "></polyline>
<polyline clip-path="url(#clip620)" style="stroke:#000000; stroke-linecap:round; stroke-linejoin:round; stroke-width:4; stroke-opacity:1; fill:none" points="460.563,1337.39 479.461,1337.39 "></polyline>
<polyline clip-path="url(#clip620)" style="stroke:#000000; stroke-linecap:round; stroke-linejoin:round; stroke-width:4; stroke-opacity:1; fill:none" points="460.563,1105.8 479.461,1105.8 "></polyline>
<polyline clip-path="url(#clip620)" style="stroke:#000000; stroke-linecap:round; stroke-linejoin:round; stroke-width:4; stroke-opacity:1; fill:none" points="460.563,874.215 479.461,874.215 "></polyline>
<polyline clip-path="url(#clip620)" style="stroke:#000000; stroke-linecap:round; stroke-linejoin:round; stroke-width:4; stroke-opacity:1; fill:none" points="460.563,642.627 479.461,642.627 "></polyline>
<polyline clip-path="url(#clip620)" style="stroke:#000000; stroke-linecap:round; stroke-linejoin:round; stroke-width:4; stroke-opacity:1; fill:none" points="460.563,411.039 479.461,411.039 "></polyline>
<path clip-path="url(#clip620)" d="M182.877 1357.18 L199.197 1357.18 L199.197 1361.12 L177.252 1361.12 L177.252 1357.18 Q179.914 1354.43 184.498 1349.8 Q189.104 1345.15 190.285 1343.8 Q192.53 1341.28 193.41 1339.54 Q194.312 1337.78 194.312 1336.1 Q194.312 1333.34 192.368 1331.6 Q190.447 1329.87 187.345 1329.87 Q185.146 1329.87 182.692 1330.63 Q180.262 1331.4 177.484 1332.95 L177.484 1328.22 Q180.308 1327.09 182.762 1326.51 Q185.215 1325.93 187.252 1325.93 Q192.623 1325.93 195.817 1328.62 Q199.011 1331.3 199.011 1335.79 Q199.011 1337.92 198.201 1339.85 Q197.414 1341.74 195.308 1344.34 Q194.729 1345.01 191.627 1348.22 Q188.525 1351.42 182.877 1357.18 Z" fill="#000000" fill-rule="nonzero" fill-opacity="1"></path><path clip-path="url(#clip620)" d="M209.011 1355.24 L213.896 1355.24 L213.896 1361.12 L209.011 1361.12 L209.011 1355.24 Z" fill="#000000" fill-rule="nonzero" fill-opacity="1"></path><path clip-path="url(#clip620)" d="M224.127 1326.56 L242.483 1326.56 L242.483 1330.49 L228.409 1330.49 L228.409 1338.97 Q229.428 1338.62 230.446 1338.46 Q231.465 1338.27 232.483 1338.27 Q238.27 1338.27 241.65 1341.44 Q245.03 1344.61 245.03 1350.03 Q245.03 1355.61 241.557 1358.71 Q238.085 1361.79 231.766 1361.79 Q229.59 1361.79 227.321 1361.42 Q225.076 1361.05 222.669 1360.31 L222.669 1355.61 Q224.752 1356.74 226.974 1357.3 Q229.196 1357.85 231.673 1357.85 Q235.678 1357.85 238.016 1355.75 Q240.354 1353.64 240.354 1350.03 Q240.354 1346.42 238.016 1344.31 Q235.678 1342.21 231.673 1342.21 Q229.798 1342.21 227.923 1342.62 Q226.071 1343.04 224.127 1343.92 L224.127 1326.56 Z" fill="#000000" fill-rule="nonzero" fill-opacity="1"></path><path clip-path="url(#clip620)" d="M264.243 1329.64 Q260.631 1329.64 258.803 1333.2 Q256.997 1336.74 256.997 1343.87 Q256.997 1350.98 258.803 1354.54 Q260.631 1358.09 264.243 1358.09 Q267.877 1358.09 269.682 1354.54 Q271.511 1350.98 271.511 1343.87 Q271.511 1336.74 269.682 1333.2 Q267.877 1329.64 264.243 1329.64 M264.243 1325.93 Q270.053 1325.93 273.108 1330.54 Q276.187 1335.12 276.187 1343.87 Q276.187 1352.6 273.108 1357.21 Q270.053 1361.79 264.243 1361.79 Q258.432 1361.79 255.354 1357.21 Q252.298 1352.6 252.298 1343.87 Q252.298 1335.12 255.354 1330.54 Q258.432 1325.93 264.243 1325.93 Z" fill="#000000" fill-rule="nonzero" fill-opacity="1"></path><path clip-path="url(#clip620)" d="M294.404 1329.64 Q290.793 1329.64 288.965 1333.2 Q287.159 1336.74 287.159 1343.87 Q287.159 1350.98 288.965 1354.54 Q290.793 1358.09 294.404 1358.09 Q298.039 1358.09 299.844 1354.54 Q301.673 1350.98 301.673 1343.87 Q301.673 1336.74 299.844 1333.2 Q298.039 1329.64 294.404 1329.64 M294.404 1325.93 Q300.215 1325.93 303.27 1330.54 Q306.349 1335.12 306.349 1343.87 Q306.349 1352.6 303.27 1357.21 Q300.215 1361.79 294.404 1361.79 Q288.594 1361.79 285.516 1357.21 Q282.46 1352.6 282.46 1343.87 Q282.46 1335.12 285.516 1330.54 Q288.594 1325.93 294.404 1325.93 Z" fill="#000000" fill-rule="nonzero" fill-opacity="1"></path><path clip-path="url(#clip620)" d="M342.738 1335.66 L332.159 1346.28 L342.738 1356.86 L339.983 1359.66 L329.358 1349.03 L318.733 1359.66 L316.002 1356.86 L326.557 1346.28 L316.002 1335.66 L318.733 1332.85 L329.358 1343.48 L339.983 1332.85 L342.738 1335.66 Z" fill="#000000" fill-rule="nonzero" fill-opacity="1"></path><path clip-path="url(#clip620)" d="M355.099 1357.18 L362.737 1357.18 L362.737 1330.82 L354.427 1332.48 L354.427 1328.22 L362.691 1326.56 L367.367 1326.56 L367.367 1357.18 L375.006 1357.18 L375.006 1361.12 L355.099 1361.12 L355.099 1357.18 Z" fill="#000000" fill-rule="nonzero" fill-opacity="1"></path><path clip-path="url(#clip620)" d="M394.45 1329.64 Q390.839 1329.64 389.01 1333.2 Q387.205 1336.74 387.205 1343.87 Q387.205 1350.98 389.01 1354.54 Q390.839 1358.09 394.45 1358.09 Q398.084 1358.09 399.89 1354.54 Q401.719 1350.98 401.719 1343.87 Q401.719 1336.74 399.89 1333.2 Q398.084 1329.64 394.45 1329.64 M394.45 1325.93 Q400.26 1325.93 403.316 1330.54 Q406.395 1335.12 406.395 1343.87 Q406.395 1352.6 403.316 1357.21 Q400.26 1361.79 394.45 1361.79 Q388.64 1361.79 385.561 1357.21 Q382.506 1352.6 382.506 1343.87 Q382.506 1335.12 385.561 1330.54 Q388.64 1325.93 394.45 1325.93 Z" fill="#000000" fill-rule="nonzero" fill-opacity="1"></path><path clip-path="url(#clip620)" d="M407.579 1305.63 L422.494 1305.63 L422.494 1308.83 L411.059 1308.83 L411.059 1315.71 Q411.886 1315.43 412.714 1315.29 Q413.542 1315.14 414.369 1315.14 Q419.071 1315.14 421.817 1317.72 Q424.563 1320.3 424.563 1324.7 Q424.563 1329.23 421.742 1331.75 Q418.921 1334.25 413.786 1334.25 Q412.018 1334.25 410.175 1333.95 Q408.351 1333.65 406.395 1333.05 L406.395 1329.23 Q408.087 1330.15 409.893 1330.6 Q411.698 1331.06 413.711 1331.06 Q416.965 1331.06 418.864 1329.34 Q420.764 1327.63 420.764 1324.7 Q420.764 1321.76 418.864 1320.05 Q416.965 1318.34 413.711 1318.34 Q412.187 1318.34 410.664 1318.68 Q409.159 1319.02 407.579 1319.73 L407.579 1305.63 Z" fill="#000000" fill-rule="nonzero" fill-opacity="1"></path><path clip-path="url(#clip620)" d="M178.896 1094.97 L197.252 1094.97 L197.252 1098.91 L183.178 1098.91 L183.178 1107.38 Q184.197 1107.03 185.215 1106.87 Q186.234 1106.68 187.252 1106.68 Q193.039 1106.68 196.419 1109.85 Q199.798 1113.03 199.798 1118.44 Q199.798 1124.02 196.326 1127.12 Q192.854 1130.2 186.535 1130.2 Q184.359 1130.2 182.09 1129.83 Q179.845 1129.46 177.437 1128.72 L177.437 1124.02 Q179.521 1125.16 181.743 1125.71 Q183.965 1126.27 186.442 1126.27 Q190.447 1126.27 192.785 1124.16 Q195.123 1122.05 195.123 1118.44 Q195.123 1114.83 192.785 1112.72 Q190.447 1110.62 186.442 1110.62 Q184.567 1110.62 182.692 1111.03 Q180.84 1111.45 178.896 1112.33 L178.896 1094.97 Z" fill="#000000" fill-rule="nonzero" fill-opacity="1"></path><path clip-path="url(#clip620)" d="M209.011 1123.65 L213.896 1123.65 L213.896 1129.53 L209.011 1129.53 L209.011 1123.65 Z" fill="#000000" fill-rule="nonzero" fill-opacity="1"></path><path clip-path="url(#clip620)" d="M234.081 1098.05 Q230.47 1098.05 228.641 1101.61 Q226.835 1105.16 226.835 1112.28 Q226.835 1119.39 228.641 1122.96 Q230.47 1126.5 234.081 1126.5 Q237.715 1126.5 239.52 1122.96 Q241.349 1119.39 241.349 1112.28 Q241.349 1105.16 239.52 1101.61 Q237.715 1098.05 234.081 1098.05 M234.081 1094.35 Q239.891 1094.35 242.946 1098.95 Q246.025 1103.53 246.025 1112.28 Q246.025 1121.01 242.946 1125.62 Q239.891 1130.2 234.081 1130.2 Q228.271 1130.2 225.192 1125.62 Q222.136 1121.01 222.136 1112.28 Q222.136 1103.53 225.192 1098.95 Q228.271 1094.35 234.081 1094.35 Z" fill="#000000" fill-rule="nonzero" fill-opacity="1"></path><path clip-path="url(#clip620)" d="M264.243 1098.05 Q260.631 1098.05 258.803 1101.61 Q256.997 1105.16 256.997 1112.28 Q256.997 1119.39 258.803 1122.96 Q260.631 1126.5 264.243 1126.5 Q267.877 1126.5 269.682 1122.96 Q271.511 1119.39 271.511 1112.28 Q271.511 1105.16 269.682 1101.61 Q267.877 1098.05 264.243 1098.05 M264.243 1094.35 Q270.053 1094.35 273.108 1098.95 Q276.187 1103.53 276.187 1112.28 Q276.187 1121.01 273.108 1125.62 Q270.053 1130.2 264.243 1130.2 Q258.432 1130.2 255.354 1125.62 Q252.298 1121.01 252.298 1112.28 Q252.298 1103.53 255.354 1098.95 Q258.432 1094.35 264.243 1094.35 Z" fill="#000000" fill-rule="nonzero" fill-opacity="1"></path><path clip-path="url(#clip620)" d="M294.404 1098.05 Q290.793 1098.05 288.965 1101.61 Q287.159 1105.16 287.159 1112.28 Q287.159 1119.39 288.965 1122.96 Q290.793 1126.5 294.404 1126.5 Q298.039 1126.5 299.844 1122.96 Q301.673 1119.39 301.673 1112.28 Q301.673 1105.16 299.844 1101.61 Q298.039 1098.05 294.404 1098.05 M294.404 1094.35 Q300.215 1094.35 303.27 1098.95 Q306.349 1103.53 306.349 1112.28 Q306.349 1121.01 303.27 1125.62 Q300.215 1130.2 294.404 1130.2 Q288.594 1130.2 285.516 1125.62 Q282.46 1121.01 282.46 1112.28 Q282.46 1103.53 285.516 1098.95 Q288.594 1094.35 294.404 1094.35 Z" fill="#000000" fill-rule="nonzero" fill-opacity="1"></path><path clip-path="url(#clip620)" d="M342.738 1104.07 L332.159 1114.69 L342.738 1125.27 L339.983 1128.07 L329.358 1117.45 L318.733 1128.07 L316.002 1125.27 L326.557 1114.69 L316.002 1104.07 L318.733 1101.27 L329.358 1111.89 L339.983 1101.27 L342.738 1104.07 Z" fill="#000000" fill-rule="nonzero" fill-opacity="1"></path><path clip-path="url(#clip620)" d="M355.099 1125.6 L362.737 1125.6 L362.737 1099.23 L354.427 1100.9 L354.427 1096.64 L362.691 1094.97 L367.367 1094.97 L367.367 1125.6 L375.006 1125.6 L375.006 1129.53 L355.099 1129.53 L355.099 1125.6 Z" fill="#000000" fill-rule="nonzero" fill-opacity="1"></path><path clip-path="url(#clip620)" d="M394.45 1098.05 Q390.839 1098.05 389.01 1101.61 Q387.205 1105.16 387.205 1112.28 Q387.205 1119.39 389.01 1122.96 Q390.839 1126.5 394.45 1126.5 Q398.084 1126.5 399.89 1122.96 Q401.719 1119.39 401.719 1112.28 Q401.719 1105.16 399.89 1101.61 Q398.084 1098.05 394.45 1098.05 M394.45 1094.35 Q400.26 1094.35 403.316 1098.95 Q406.395 1103.53 406.395 1112.28 Q406.395 1121.01 403.316 1125.62 Q400.26 1130.2 394.45 1130.2 Q388.64 1130.2 385.561 1125.62 Q382.506 1121.01 382.506 1112.28 Q382.506 1103.53 385.561 1098.95 Q388.64 1094.35 394.45 1094.35 Z" fill="#000000" fill-rule="nonzero" fill-opacity="1"></path><path clip-path="url(#clip620)" d="M407.579 1074.04 L422.494 1074.04 L422.494 1077.24 L411.059 1077.24 L411.059 1084.12 Q411.886 1083.84 412.714 1083.71 Q413.542 1083.56 414.369 1083.56 Q419.071 1083.56 421.817 1086.13 Q424.563 1088.71 424.563 1093.11 Q424.563 1097.64 421.742 1100.16 Q418.921 1102.67 413.786 1102.67 Q412.018 1102.67 410.175 1102.36 Q408.351 1102.06 406.395 1101.46 L406.395 1097.64 Q408.087 1098.57 409.893 1099.02 Q411.698 1099.47 413.711 1099.47 Q416.965 1099.47 418.864 1097.76 Q420.764 1096.04 420.764 1093.11 Q420.764 1090.18 418.864 1088.47 Q416.965 1086.75 413.711 1086.75 Q412.187 1086.75 410.664 1087.09 Q409.159 1087.43 407.579 1088.15 L407.579 1074.04 Z" fill="#000000" fill-rule="nonzero" fill-opacity="1"></path><path clip-path="url(#clip620)" d="M177.669 863.382 L199.891 863.382 L199.891 865.373 L187.345 897.942 L182.461 897.942 L194.266 867.317 L177.669 867.317 L177.669 863.382 Z" fill="#000000" fill-rule="nonzero" fill-opacity="1"></path><path clip-path="url(#clip620)" d="M209.011 892.063 L213.896 892.063 L213.896 897.942 L209.011 897.942 L209.011 892.063 Z" fill="#000000" fill-rule="nonzero" fill-opacity="1"></path><path clip-path="url(#clip620)" d="M224.127 863.382 L242.483 863.382 L242.483 867.317 L228.409 867.317 L228.409 875.79 Q229.428 875.442 230.446 875.28 Q231.465 875.095 232.483 875.095 Q238.27 875.095 241.65 878.266 Q245.03 881.438 245.03 886.854 Q245.03 892.433 241.557 895.535 Q238.085 898.613 231.766 898.613 Q229.59 898.613 227.321 898.243 Q225.076 897.873 222.669 897.132 L222.669 892.433 Q224.752 893.567 226.974 894.123 Q229.196 894.678 231.673 894.678 Q235.678 894.678 238.016 892.572 Q240.354 890.465 240.354 886.854 Q240.354 883.243 238.016 881.137 Q235.678 879.03 231.673 879.03 Q229.798 879.03 227.923 879.447 Q226.071 879.864 224.127 880.743 L224.127 863.382 Z" fill="#000000" fill-rule="nonzero" fill-opacity="1"></path><path clip-path="url(#clip620)" d="M264.243 866.461 Q260.631 866.461 258.803 870.026 Q256.997 873.567 256.997 880.697 Q256.997 887.803 258.803 891.368 Q260.631 894.91 264.243 894.91 Q267.877 894.91 269.682 891.368 Q271.511 887.803 271.511 880.697 Q271.511 873.567 269.682 870.026 Q267.877 866.461 264.243 866.461 M264.243 862.757 Q270.053 862.757 273.108 867.364 Q276.187 871.947 276.187 880.697 Q276.187 889.424 273.108 894.03 Q270.053 898.613 264.243 898.613 Q258.432 898.613 255.354 894.03 Q252.298 889.424 252.298 880.697 Q252.298 871.947 255.354 867.364 Q258.432 862.757 264.243 862.757 Z" fill="#000000" fill-rule="nonzero" fill-opacity="1"></path><path clip-path="url(#clip620)" d="M294.404 866.461 Q290.793 866.461 288.965 870.026 Q287.159 873.567 287.159 880.697 Q287.159 887.803 288.965 891.368 Q290.793 894.91 294.404 894.91 Q298.039 894.91 299.844 891.368 Q301.673 887.803 301.673 880.697 Q301.673 873.567 299.844 870.026 Q298.039 866.461 294.404 866.461 M294.404 862.757 Q300.215 862.757 303.27 867.364 Q306.349 871.947 306.349 880.697 Q306.349 889.424 303.27 894.03 Q300.215 898.613 294.404 898.613 Q288.594 898.613 285.516 894.03 Q282.46 889.424 282.46 880.697 Q282.46 871.947 285.516 867.364 Q288.594 862.757 294.404 862.757 Z" fill="#000000" fill-rule="nonzero" fill-opacity="1"></path><path clip-path="url(#clip620)" d="M342.738 872.479 L332.159 883.104 L342.738 893.683 L339.983 896.484 L329.358 885.859 L318.733 896.484 L316.002 893.683 L326.557 883.104 L316.002 872.479 L318.733 869.678 L329.358 880.303 L339.983 869.678 L342.738 872.479 Z" fill="#000000" fill-rule="nonzero" fill-opacity="1"></path><path clip-path="url(#clip620)" d="M355.099 894.007 L362.737 894.007 L362.737 867.641 L354.427 869.308 L354.427 865.049 L362.691 863.382 L367.367 863.382 L367.367 894.007 L375.006 894.007 L375.006 897.942 L355.099 897.942 L355.099 894.007 Z" fill="#000000" fill-rule="nonzero" fill-opacity="1"></path><path clip-path="url(#clip620)" d="M394.45 866.461 Q390.839 866.461 389.01 870.026 Q387.205 873.567 387.205 880.697 Q387.205 887.803 389.01 891.368 Q390.839 894.91 394.45 894.91 Q398.084 894.91 399.89 891.368 Q401.719 887.803 401.719 880.697 Q401.719 873.567 399.89 870.026 Q398.084 866.461 394.45 866.461 M394.45 862.757 Q400.26 862.757 403.316 867.364 Q406.395 871.947 406.395 880.697 Q406.395 889.424 403.316 894.03 Q400.26 898.613 394.45 898.613 Q388.64 898.613 385.561 894.03 Q382.506 889.424 382.506 880.697 Q382.506 871.947 385.561 867.364 Q388.64 862.757 394.45 862.757 Z" fill="#000000" fill-rule="nonzero" fill-opacity="1"></path><path clip-path="url(#clip620)" d="M407.579 842.452 L422.494 842.452 L422.494 845.649 L411.059 845.649 L411.059 852.533 Q411.886 852.251 412.714 852.119 Q413.542 851.968 414.369 851.968 Q419.071 851.968 421.817 854.545 Q424.563 857.122 424.563 861.523 Q424.563 866.056 421.742 868.576 Q418.921 871.077 413.786 871.077 Q412.018 871.077 410.175 870.776 Q408.351 870.475 406.395 869.873 L406.395 866.056 Q408.087 866.977 409.893 867.428 Q411.698 867.88 413.711 867.88 Q416.965 867.88 418.864 866.168 Q420.764 864.457 420.764 861.523 Q420.764 858.589 418.864 856.877 Q416.965 855.166 413.711 855.166 Q412.187 855.166 410.664 855.504 Q409.159 855.843 407.579 856.558 L407.579 842.452 Z" fill="#000000" fill-rule="nonzero" fill-opacity="1"></path><path clip-path="url(#clip620)" d="M178.437 662.419 L186.076 662.419 L186.076 636.053 L177.766 637.72 L177.766 633.461 L186.03 631.794 L190.706 631.794 L190.706 662.419 L198.344 662.419 L198.344 666.354 L178.437 666.354 L178.437 662.419 Z" fill="#000000" fill-rule="nonzero" fill-opacity="1"></path><path clip-path="url(#clip620)" d="M207.789 660.475 L212.673 660.475 L212.673 666.354 L207.789 666.354 L207.789 660.475 Z" fill="#000000" fill-rule="nonzero" fill-opacity="1"></path><path clip-path="url(#clip620)" d="M232.858 634.873 Q229.247 634.873 227.418 638.438 Q225.613 641.979 225.613 649.109 Q225.613 656.215 227.418 659.78 Q229.247 663.322 232.858 663.322 Q236.492 663.322 238.298 659.78 Q240.127 656.215 240.127 649.109 Q240.127 641.979 238.298 638.438 Q236.492 634.873 232.858 634.873 M232.858 631.169 Q238.668 631.169 241.724 635.776 Q244.803 640.359 244.803 649.109 Q244.803 657.836 241.724 662.442 Q238.668 667.025 232.858 667.025 Q227.048 667.025 223.969 662.442 Q220.914 657.836 220.914 649.109 Q220.914 640.359 223.969 635.776 Q227.048 631.169 232.858 631.169 Z" fill="#000000" fill-rule="nonzero" fill-opacity="1"></path><path clip-path="url(#clip620)" d="M263.02 634.873 Q259.409 634.873 257.58 638.438 Q255.775 641.979 255.775 649.109 Q255.775 656.215 257.58 659.78 Q259.409 663.322 263.02 663.322 Q266.654 663.322 268.46 659.78 Q270.289 656.215 270.289 649.109 Q270.289 641.979 268.46 638.438 Q266.654 634.873 263.02 634.873 M263.02 631.169 Q268.83 631.169 271.886 635.776 Q274.964 640.359 274.964 649.109 Q274.964 657.836 271.886 662.442 Q268.83 667.025 263.02 667.025 Q257.21 667.025 254.131 662.442 Q251.076 657.836 251.076 649.109 Q251.076 640.359 254.131 635.776 Q257.21 631.169 263.02 631.169 Z" fill="#000000" fill-rule="nonzero" fill-opacity="1"></path><path clip-path="url(#clip620)" d="M293.182 634.873 Q289.571 634.873 287.742 638.438 Q285.937 641.979 285.937 649.109 Q285.937 656.215 287.742 659.78 Q289.571 663.322 293.182 663.322 Q296.816 663.322 298.622 659.78 Q300.45 656.215 300.45 649.109 Q300.45 641.979 298.622 638.438 Q296.816 634.873 293.182 634.873 M293.182 631.169 Q298.992 631.169 302.048 635.776 Q305.126 640.359 305.126 649.109 Q305.126 657.836 302.048 662.442 Q298.992 667.025 293.182 667.025 Q287.372 667.025 284.293 662.442 Q281.238 657.836 281.238 649.109 Q281.238 640.359 284.293 635.776 Q287.372 631.169 293.182 631.169 Z" fill="#000000" fill-rule="nonzero" fill-opacity="1"></path><path clip-path="url(#clip620)" d="M341.515 640.891 L330.936 651.516 L341.515 662.095 L338.76 664.896 L328.135 654.271 L317.511 664.896 L314.779 662.095 L325.335 651.516 L314.779 640.891 L317.511 638.09 L328.135 648.715 L338.76 638.09 L341.515 640.891 Z" fill="#000000" fill-rule="nonzero" fill-opacity="1"></path><path clip-path="url(#clip620)" d="M353.876 662.419 L361.515 662.419 L361.515 636.053 L353.205 637.72 L353.205 633.461 L361.469 631.794 L366.145 631.794 L366.145 662.419 L373.783 662.419 L373.783 666.354 L353.876 666.354 L353.876 662.419 Z" fill="#000000" fill-rule="nonzero" fill-opacity="1"></path><path clip-path="url(#clip620)" d="M393.228 634.873 Q389.617 634.873 387.788 638.438 Q385.982 641.979 385.982 649.109 Q385.982 656.215 387.788 659.78 Q389.617 663.322 393.228 663.322 Q396.862 663.322 398.667 659.78 Q400.496 656.215 400.496 649.109 Q400.496 641.979 398.667 638.438 Q396.862 634.873 393.228 634.873 M393.228 631.169 Q399.038 631.169 402.093 635.776 Q405.172 640.359 405.172 649.109 Q405.172 657.836 402.093 662.442 Q399.038 667.025 393.228 667.025 Q387.418 667.025 384.339 662.442 Q381.283 657.836 381.283 649.109 Q381.283 640.359 384.339 635.776 Q387.418 631.169 393.228 631.169 Z" fill="#000000" fill-rule="nonzero" fill-opacity="1"></path><path clip-path="url(#clip620)" d="M415.197 623.39 Q412.639 623.39 411.134 625.139 Q409.648 626.888 409.648 629.935 Q409.648 632.963 411.134 634.731 Q412.639 636.48 415.197 636.48 Q417.754 636.48 419.24 634.731 Q420.745 632.963 420.745 629.935 Q420.745 626.888 419.24 625.139 Q417.754 623.39 415.197 623.39 M422.739 611.484 L422.739 614.945 Q421.309 614.268 419.842 613.911 Q418.394 613.553 416.965 613.553 Q413.203 613.553 411.209 616.092 Q409.235 618.631 408.952 623.766 Q410.062 622.13 411.736 621.264 Q413.41 620.38 415.422 620.38 Q419.654 620.38 422.099 622.957 Q424.563 625.515 424.563 629.935 Q424.563 634.261 422.005 636.875 Q419.447 639.489 415.197 639.489 Q410.325 639.489 407.749 635.765 Q405.172 632.022 405.172 624.932 Q405.172 618.274 408.332 614.324 Q411.491 610.356 416.814 610.356 Q418.243 610.356 419.692 610.638 Q421.159 610.92 422.739 611.484 Z" fill="#000000" fill-rule="nonzero" fill-opacity="1"></path><path clip-path="url(#clip620)" d="M178.437 430.831 L186.076 430.831 L186.076 404.465 L177.766 406.132 L177.766 401.873 L186.03 400.206 L190.706 400.206 L190.706 430.831 L198.344 430.831 L198.344 434.766 L178.437 434.766 L178.437 430.831 Z" fill="#000000" fill-rule="nonzero" fill-opacity="1"></path><path clip-path="url(#clip620)" d="M207.789 428.887 L212.673 428.887 L212.673 434.766 L207.789 434.766 L207.789 428.887 Z" fill="#000000" fill-rule="nonzero" fill-opacity="1"></path><path clip-path="url(#clip620)" d="M226.886 430.831 L243.205 430.831 L243.205 434.766 L221.261 434.766 L221.261 430.831 Q223.923 428.076 228.506 423.447 Q233.113 418.794 234.293 417.451 Q236.539 414.928 237.418 413.192 Q238.321 411.433 238.321 409.743 Q238.321 406.989 236.377 405.252 Q234.455 403.516 231.354 403.516 Q229.154 403.516 226.701 404.28 Q224.27 405.044 221.492 406.595 L221.492 401.873 Q224.317 400.739 226.77 400.16 Q229.224 399.581 231.261 399.581 Q236.631 399.581 239.826 402.266 Q243.02 404.951 243.02 409.442 Q243.02 411.572 242.21 413.493 Q241.423 415.391 239.316 417.984 Q238.738 418.655 235.636 421.873 Q232.534 425.067 226.886 430.831 Z" fill="#000000" fill-rule="nonzero" fill-opacity="1"></path><path clip-path="url(#clip620)" d="M253.066 400.206 L271.423 400.206 L271.423 404.141 L257.349 404.141 L257.349 412.613 Q258.367 412.266 259.386 412.104 Q260.404 411.919 261.423 411.919 Q267.21 411.919 270.589 415.09 Q273.969 418.262 273.969 423.678 Q273.969 429.257 270.497 432.359 Q267.025 435.437 260.705 435.437 Q258.529 435.437 256.261 435.067 Q254.015 434.697 251.608 433.956 L251.608 429.257 Q253.691 430.391 255.914 430.947 Q258.136 431.502 260.613 431.502 Q264.617 431.502 266.955 429.396 Q269.293 427.289 269.293 423.678 Q269.293 420.067 266.955 417.961 Q264.617 415.854 260.613 415.854 Q258.738 415.854 256.863 416.271 Q255.011 416.688 253.066 417.567 L253.066 400.206 Z" fill="#000000" fill-rule="nonzero" fill-opacity="1"></path><path clip-path="url(#clip620)" d="M293.182 403.285 Q289.571 403.285 287.742 406.85 Q285.937 410.391 285.937 417.521 Q285.937 424.627 287.742 428.192 Q289.571 431.734 293.182 431.734 Q296.816 431.734 298.622 428.192 Q300.45 424.627 300.45 417.521 Q300.45 410.391 298.622 406.85 Q296.816 403.285 293.182 403.285 M293.182 399.581 Q298.992 399.581 302.048 404.188 Q305.126 408.771 305.126 417.521 Q305.126 426.248 302.048 430.854 Q298.992 435.437 293.182 435.437 Q287.372 435.437 284.293 430.854 Q281.238 426.248 281.238 417.521 Q281.238 408.771 284.293 404.188 Q287.372 399.581 293.182 399.581 Z" fill="#000000" fill-rule="nonzero" fill-opacity="1"></path><path clip-path="url(#clip620)" d="M341.515 409.303 L330.936 419.928 L341.515 430.507 L338.76 433.308 L328.135 422.683 L317.511 433.308 L314.779 430.507 L325.335 419.928 L314.779 409.303 L317.511 406.502 L328.135 417.127 L338.76 406.502 L341.515 409.303 Z" fill="#000000" fill-rule="nonzero" fill-opacity="1"></path><path clip-path="url(#clip620)" d="M353.876 430.831 L361.515 430.831 L361.515 404.465 L353.205 406.132 L353.205 401.873 L361.469 400.206 L366.145 400.206 L366.145 430.831 L373.783 430.831 L373.783 434.766 L353.876 434.766 L353.876 430.831 Z" fill="#000000" fill-rule="nonzero" fill-opacity="1"></path><path clip-path="url(#clip620)" d="M393.228 403.285 Q389.617 403.285 387.788 406.85 Q385.982 410.391 385.982 417.521 Q385.982 424.627 387.788 428.192 Q389.617 431.734 393.228 431.734 Q396.862 431.734 398.667 428.192 Q400.496 424.627 400.496 417.521 Q400.496 410.391 398.667 406.85 Q396.862 403.285 393.228 403.285 M393.228 399.581 Q399.038 399.581 402.093 404.188 Q405.172 408.771 405.172 417.521 Q405.172 426.248 402.093 430.854 Q399.038 435.437 393.228 435.437 Q387.418 435.437 384.339 430.854 Q381.283 426.248 381.283 417.521 Q381.283 408.771 384.339 404.188 Q387.418 399.581 393.228 399.581 Z" fill="#000000" fill-rule="nonzero" fill-opacity="1"></path><path clip-path="url(#clip620)" d="M415.197 391.802 Q412.639 391.802 411.134 393.551 Q409.648 395.3 409.648 398.347 Q409.648 401.375 411.134 403.143 Q412.639 404.892 415.197 404.892 Q417.754 404.892 419.24 403.143 Q420.745 401.375 420.745 398.347 Q420.745 395.3 419.24 393.551 Q417.754 391.802 415.197 391.802 M422.739 379.896 L422.739 383.357 Q421.309 382.68 419.842 382.323 Q418.394 381.965 416.965 381.965 Q413.203 381.965 411.209 384.504 Q409.235 387.043 408.952 392.178 Q410.062 390.542 411.736 389.676 Q413.41 388.792 415.422 388.792 Q419.654 388.792 422.099 391.369 Q424.563 393.927 424.563 398.347 Q424.563 402.673 422.005 405.287 Q419.447 407.901 415.197 407.901 Q410.325 407.901 407.749 404.177 Q405.172 400.434 405.172 393.344 Q405.172 386.686 408.332 382.736 Q411.491 378.768 416.814 378.768 Q418.243 378.768 419.692 379.05 Q421.159 379.332 422.739 379.896 Z" fill="#000000" fill-rule="nonzero" fill-opacity="1"></path><path clip-path="url(#clip620)" d="M79.4763 1074.76 L79.4763 1068.33 L98.9553 1068.33 L98.9553 1044.97 L79.4763 1044.97 L79.4763 1038.54 L126.996 1038.54 L126.996 1044.97 L104.366 1044.97 L104.366 1068.33 L126.996 1068.33 L126.996 1074.76 L79.4763 1074.76 Z" fill="#000000" fill-rule="nonzero" fill-opacity="1"></path><path clip-path="url(#clip620)" d="M95.4542 1012.18 Q95.4542 1016.89 99.1463 1019.63 Q102.807 1022.37 109.204 1022.37 Q115.602 1022.37 119.294 1019.66 Q122.954 1016.93 122.954 1012.18 Q122.954 1007.5 119.262 1004.77 Q115.57 1002.03 109.204 1002.03 Q102.87 1002.03 99.1781 1004.77 Q95.4542 1007.5 95.4542 1012.18 M90.489 1012.18 Q90.489 1004.54 95.4542 1000.18 Q100.419 995.823 109.204 995.823 Q117.957 995.823 122.954 1000.18 Q127.919 1004.54 127.919 1012.18 Q127.919 1019.85 122.954 1024.21 Q117.957 1028.54 109.204 1028.54 Q100.419 1028.54 95.4542 1024.21 Q90.489 1019.85 90.489 1012.18 Z" fill="#000000" fill-rule="nonzero" fill-opacity="1"></path><path clip-path="url(#clip620)" d="M112.928 986.72 L91.3483 986.72 L91.3483 980.864 L112.705 980.864 Q117.766 980.864 120.312 978.891 Q122.827 976.917 122.827 972.97 Q122.827 968.228 119.803 965.491 Q116.779 962.722 111.559 962.722 L91.3483 962.722 L91.3483 956.865 L126.996 956.865 L126.996 962.722 L121.522 962.722 Q124.768 964.854 126.36 967.687 Q127.919 970.488 127.919 974.212 Q127.919 980.355 124.1 983.538 Q120.28 986.72 112.928 986.72 M90.489 971.984 L90.489 971.984 Z" fill="#000000" fill-rule="nonzero" fill-opacity="1"></path><path clip-path="url(#clip620)" d="M92.3987 922.077 L97.9368 922.077 Q96.6637 924.559 96.0271 927.233 Q95.3906 929.906 95.3906 932.771 Q95.3906 937.132 96.7273 939.328 Q98.0641 941.492 100.738 941.492 Q102.775 941.492 103.952 939.932 Q105.098 938.373 106.149 933.662 L106.594 931.657 Q107.931 925.419 110.382 922.809 Q112.801 920.167 117.161 920.167 Q122.127 920.167 125.023 924.114 Q127.919 928.029 127.919 934.904 Q127.919 937.768 127.346 940.887 Q126.805 943.975 125.691 947.412 L119.644 947.412 Q121.331 944.166 122.19 941.015 Q123.018 937.864 123.018 934.776 Q123.018 930.639 121.617 928.411 Q120.185 926.183 117.607 926.183 Q115.22 926.183 113.947 927.806 Q112.673 929.397 111.496 934.84 L111.018 936.877 Q109.873 942.32 107.517 944.739 Q105.13 947.158 100.992 947.158 Q95.9635 947.158 93.2262 943.593 Q90.489 940.028 90.489 933.471 Q90.489 930.225 90.9664 927.36 Q91.4438 924.496 92.3987 922.077 Z" fill="#000000" fill-rule="nonzero" fill-opacity="1"></path><path clip-path="url(#clip620)" d="M107.708 880.349 L110.573 880.349 L110.573 907.276 Q116.62 906.894 119.803 903.648 Q122.954 900.37 122.954 894.545 Q122.954 891.171 122.127 888.02 Q121.299 884.837 119.644 881.718 L125.182 881.718 Q126.519 884.869 127.219 888.179 Q127.919 891.489 127.919 894.895 Q127.919 903.425 122.954 908.422 Q117.989 913.387 109.522 913.387 Q100.77 913.387 95.6452 908.677 Q90.489 903.934 90.489 895.914 Q90.489 888.72 95.1359 884.551 Q99.7511 880.349 107.708 880.349 M105.989 886.206 Q101.183 886.27 98.3188 888.911 Q95.4542 891.521 95.4542 895.85 Q95.4542 900.752 98.2233 903.712 Q100.992 906.64 106.021 907.085 L105.989 886.206 Z" fill="#000000" fill-rule="nonzero" fill-opacity="1"></path><path clip-path="url(#clip620)" d="M126.996 837.508 L79.4763 855.65 L79.4763 848.935 L119.485 833.88 L79.4763 818.793 L79.4763 812.109 L126.996 830.219 L126.996 837.508 Z" fill="#000000" fill-rule="nonzero" fill-opacity="1"></path><path clip-path="url(#clip620)" d="M109.077 794.285 Q109.077 801.383 110.7 804.12 Q112.323 806.857 116.238 806.857 Q119.357 806.857 121.203 804.82 Q123.018 802.751 123.018 799.218 Q123.018 794.349 119.58 791.421 Q116.111 788.46 110.382 788.46 L109.077 788.46 L109.077 794.285 M106.658 782.604 L126.996 782.604 L126.996 788.46 L121.585 788.46 Q124.832 790.466 126.392 793.458 Q127.919 796.449 127.919 800.778 Q127.919 806.253 124.864 809.499 Q121.776 812.714 116.62 812.714 Q110.605 812.714 107.549 808.703 Q104.494 804.661 104.494 796.672 L104.494 788.46 L103.921 788.46 Q99.8784 788.46 97.6822 791.134 Q95.4542 793.776 95.4542 798.582 Q95.4542 801.637 96.1863 804.534 Q96.9183 807.43 98.3824 810.104 L92.9716 810.104 Q91.7303 806.889 91.1255 803.865 Q90.489 800.842 90.489 797.977 Q90.489 790.243 94.4994 786.423 Q98.5097 782.604 106.658 782.604 Z" fill="#000000" fill-rule="nonzero" fill-opacity="1"></path><path clip-path="url(#clip620)" d="M77.4711 770.541 L77.4711 764.685 L126.996 764.685 L126.996 770.541 L77.4711 770.541 Z" fill="#000000" fill-rule="nonzero" fill-opacity="1"></path><path clip-path="url(#clip620)" d="M112.928 753.035 L91.3483 753.035 L91.3483 747.179 L112.705 747.179 Q117.766 747.179 120.312 745.205 Q122.827 743.232 122.827 739.285 Q122.827 734.543 119.803 731.806 Q116.779 729.037 111.559 729.037 L91.3483 729.037 L91.3483 723.18 L126.996 723.18 L126.996 729.037 L121.522 729.037 Q124.768 731.169 126.36 734.002 Q127.919 736.803 127.919 740.527 Q127.919 746.67 124.1 749.852 Q120.28 753.035 112.928 753.035 M90.489 738.299 L90.489 738.299 Z" fill="#000000" fill-rule="nonzero" fill-opacity="1"></path><path clip-path="url(#clip620)" d="M107.708 680.625 L110.573 680.625 L110.573 707.552 Q116.62 707.17 119.803 703.924 Q122.954 700.646 122.954 694.821 Q122.954 691.447 122.127 688.296 Q121.299 685.113 119.644 681.994 L125.182 681.994 Q126.519 685.145 127.219 688.455 Q127.919 691.765 127.919 695.171 Q127.919 703.701 122.954 708.698 Q117.989 713.663 109.522 713.663 Q100.77 713.663 95.6452 708.953 Q90.489 704.21 90.489 696.19 Q90.489 688.996 95.1359 684.827 Q99.7511 680.625 107.708 680.625 M105.989 686.482 Q101.183 686.545 98.3188 689.187 Q95.4542 691.797 95.4542 696.126 Q95.4542 701.027 98.2233 703.988 Q100.992 706.916 106.021 707.361 L105.989 686.482 Z" fill="#000000" fill-rule="nonzero" fill-opacity="1"></path><path clip-path="url(#clip620)" d="M77.4711 650.834 L77.4711 637.339 L82.0226 637.339 L82.0226 644.977 L131.039 644.977 L131.039 637.339 L135.59 637.339 L135.59 650.834 L77.4711 650.834 Z" fill="#000000" fill-rule="nonzero" fill-opacity="1"></path><path clip-path="url(#clip620)" d="M79.4763 625.339 L79.4763 618.878 L108.345 618.878 Q115.984 618.878 119.357 616.109 Q122.699 613.34 122.699 607.133 Q122.699 600.959 119.357 598.189 Q115.984 595.42 108.345 595.42 L79.4763 595.42 L79.4763 588.959 L109.14 588.959 Q118.434 588.959 123.177 593.574 Q127.919 598.158 127.919 607.133 Q127.919 616.141 123.177 620.756 Q118.434 625.339 109.14 625.339 L79.4763 625.339 Z" fill="#000000" fill-rule="nonzero" fill-opacity="1"></path><path clip-path="url(#clip620)" d="M81.0359 548.41 L87.3061 548.41 Q85.5555 552.07 84.6962 555.316 Q83.8368 558.563 83.8368 561.587 Q83.8368 566.838 85.8738 569.703 Q87.9108 572.536 91.6666 572.536 Q94.8176 572.536 96.4409 570.658 Q98.0323 568.748 99.019 563.465 L99.8147 559.581 Q101.183 552.388 104.653 548.983 Q108.09 545.545 113.883 545.545 Q120.79 545.545 124.355 550.192 Q127.919 554.807 127.919 563.751 Q127.919 567.125 127.155 570.944 Q126.392 574.732 124.896 578.806 L118.275 578.806 Q120.471 574.891 121.585 571.135 Q122.699 567.379 122.699 563.751 Q122.699 558.245 120.535 555.253 Q118.371 552.261 114.36 552.261 Q110.859 552.261 108.886 554.425 Q106.912 556.558 105.926 561.459 L105.162 565.374 Q103.73 572.568 100.674 575.782 Q97.6185 578.997 92.1759 578.997 Q85.8738 578.997 82.2454 574.573 Q78.6169 570.117 78.6169 562.319 Q78.6169 558.977 79.2217 555.507 Q79.8264 552.038 81.0359 548.41 Z" fill="#000000" fill-rule="nonzero" fill-opacity="1"></path><path clip-path="url(#clip620)" d="M84.7598 529.09 L121.713 529.09 L121.713 521.324 Q121.713 511.489 117.257 506.937 Q112.801 502.354 103.189 502.354 Q93.64 502.354 89.2158 506.937 Q84.7598 511.489 84.7598 521.324 L84.7598 529.09 M79.4763 535.519 L79.4763 522.31 Q79.4763 508.497 85.2372 502.035 Q90.9664 495.574 103.189 495.574 Q115.474 495.574 121.235 502.067 Q126.996 508.56 126.996 522.31 L126.996 535.519 L79.4763 535.519 Z" fill="#000000" fill-rule="nonzero" fill-opacity="1"></path><path clip-path="url(#clip620)" d="M77.4711 471.894 L135.59 471.894 L135.59 485.389 L131.039 485.389 L131.039 477.782 L82.0226 477.782 L82.0226 485.389 L77.4711 485.389 L77.4711 471.894 Z" fill="#000000" fill-rule="nonzero" fill-opacity="1"></path><path clip-path="url(#clip620)" d="M896.691 12.096 L904.874 12.096 L904.874 36.8875 L934.607 36.8875 L934.607 12.096 L942.79 12.096 L942.79 72.576 L934.607 72.576 L934.607 43.7741 L904.874 43.7741 L904.874 72.576 L896.691 72.576 L896.691 12.096 Z" fill="#000000" fill-rule="nonzero" fill-opacity="1"></path><path clip-path="url(#clip620)" d="M976.332 32.4315 Q970.336 32.4315 966.852 37.1306 Q963.369 41.7891 963.369 49.9314 Q963.369 58.0738 966.812 62.7728 Q970.296 67.4314 976.332 67.4314 Q982.286 67.4314 985.77 62.7323 Q989.254 58.0333 989.254 49.9314 Q989.254 41.8701 985.77 37.1711 Q982.286 32.4315 976.332 32.4315 M976.332 26.1121 Q986.054 26.1121 991.603 32.4315 Q997.153 38.7509 997.153 49.9314 Q997.153 61.0714 991.603 67.4314 Q986.054 73.7508 976.332 73.7508 Q966.569 73.7508 961.019 67.4314 Q955.51 61.0714 955.51 49.9314 Q955.51 38.7509 961.019 32.4315 Q966.569 26.1121 976.332 26.1121 Z" fill="#000000" fill-rule="nonzero" fill-opacity="1"></path><path clip-path="url(#clip620)" d="M1008.74 54.671 L1008.74 27.2059 L1016.19 27.2059 L1016.19 54.3874 Q1016.19 60.8284 1018.7 64.0691 Q1021.22 67.2693 1026.24 67.2693 Q1032.27 67.2693 1035.76 63.421 Q1039.28 59.5726 1039.28 52.9291 L1039.28 27.2059 L1046.74 27.2059 L1046.74 72.576 L1039.28 72.576 L1039.28 65.6084 Q1036.57 69.7404 1032.96 71.7658 Q1029.4 73.7508 1024.66 73.7508 Q1016.84 73.7508 1012.79 68.8897 Q1008.74 64.0286 1008.74 54.671 M1027.49 26.1121 L1027.49 26.1121 Z" fill="#000000" fill-rule="nonzero" fill-opacity="1"></path><path clip-path="url(#clip620)" d="M1091.01 28.5427 L1091.01 35.5912 Q1087.85 33.9709 1084.45 33.1607 Q1081.05 32.3505 1077.4 32.3505 Q1071.85 32.3505 1069.06 34.0519 Q1066.3 35.7533 1066.3 39.156 Q1066.3 41.7486 1068.29 43.2475 Q1070.27 44.7058 1076.27 46.0426 L1078.82 46.6097 Q1086.76 48.3111 1090.08 51.4303 Q1093.44 54.509 1093.44 60.0587 Q1093.44 66.3781 1088.42 70.0644 Q1083.44 73.7508 1074.69 73.7508 Q1071.04 73.7508 1067.07 73.0216 Q1063.14 72.3329 1058.77 70.9151 L1058.77 63.2184 Q1062.9 65.3654 1066.91 66.4591 Q1070.92 67.5124 1074.85 67.5124 Q1080.12 67.5124 1082.95 65.73 Q1085.79 63.9071 1085.79 60.6258 Q1085.79 57.5877 1083.72 55.9673 Q1081.7 54.3469 1074.77 52.8481 L1072.18 52.2405 Q1065.25 50.7821 1062.17 47.7845 Q1059.09 44.7463 1059.09 39.4801 Q1059.09 33.0797 1063.63 29.5959 Q1068.17 26.1121 1076.51 26.1121 Q1080.64 26.1121 1084.29 26.7198 Q1087.93 27.3274 1091.01 28.5427 Z" fill="#000000" fill-rule="nonzero" fill-opacity="1"></path><path clip-path="url(#clip620)" d="M1144.12 48.0275 L1144.12 51.6733 L1109.85 51.6733 Q1110.34 59.3701 1114.47 63.421 Q1118.64 67.4314 1126.05 67.4314 Q1130.35 67.4314 1134.36 66.3781 Q1138.41 65.3249 1142.38 63.2184 L1142.38 70.267 Q1138.37 71.9684 1134.15 72.8596 Q1129.94 73.7508 1125.61 73.7508 Q1114.75 73.7508 1108.39 67.4314 Q1102.07 61.1119 1102.07 50.3365 Q1102.07 39.1965 1108.07 32.6746 Q1114.1 26.1121 1124.31 26.1121 Q1133.47 26.1121 1138.77 32.0264 Q1144.12 37.9003 1144.12 48.0275 M1136.67 45.84 Q1136.59 39.7232 1133.22 36.0774 Q1129.9 32.4315 1124.39 32.4315 Q1118.15 32.4315 1114.39 35.9558 Q1110.66 39.4801 1110.09 45.8805 L1136.67 45.84 Z" fill="#000000" fill-rule="nonzero" fill-opacity="1"></path><path clip-path="url(#clip620)" d="M1198.65 72.576 L1175.56 12.096 L1184.1 12.096 L1203.26 63.0159 L1222.46 12.096 L1230.97 12.096 L1207.92 72.576 L1198.65 72.576 Z" fill="#000000" fill-rule="nonzero" fill-opacity="1"></path><path clip-path="url(#clip620)" d="M1253.66 49.7694 Q1244.62 49.7694 1241.14 51.8354 Q1237.66 53.9013 1237.66 58.8839 Q1237.66 62.8538 1240.25 65.2034 Q1242.88 67.5124 1247.38 67.5124 Q1253.58 67.5124 1257.3 63.1374 Q1261.07 58.7219 1261.07 51.4303 L1261.07 49.7694 L1253.66 49.7694 M1268.52 46.6907 L1268.52 72.576 L1261.07 72.576 L1261.07 65.6895 Q1258.52 69.8214 1254.71 71.8063 Q1250.9 73.7508 1245.39 73.7508 Q1238.43 73.7508 1234.29 69.8619 Q1230.2 65.9325 1230.2 59.3701 Q1230.2 51.7138 1235.31 47.825 Q1240.45 43.9361 1250.62 43.9361 L1261.07 43.9361 L1261.07 43.2069 Q1261.07 38.0623 1257.67 35.2672 Q1254.3 32.4315 1248.19 32.4315 Q1244.3 32.4315 1240.61 33.3632 Q1236.93 34.295 1233.52 36.1584 L1233.52 29.2718 Q1237.61 27.692 1241.46 26.9223 Q1245.31 26.1121 1248.96 26.1121 Q1258.8 26.1121 1263.66 31.2163 Q1268.52 36.3204 1268.52 46.6907 Z" fill="#000000" fill-rule="nonzero" fill-opacity="1"></path><path clip-path="url(#clip620)" d="M1283.88 9.54393 L1291.33 9.54393 L1291.33 72.576 L1283.88 72.576 L1283.88 9.54393 Z" fill="#000000" fill-rule="nonzero" fill-opacity="1"></path><path clip-path="url(#clip620)" d="M1306.16 54.671 L1306.16 27.2059 L1313.61 27.2059 L1313.61 54.3874 Q1313.61 60.8284 1316.12 64.0691 Q1318.63 67.2693 1323.66 67.2693 Q1329.69 67.2693 1333.18 63.421 Q1336.7 59.5726 1336.7 52.9291 L1336.7 27.2059 L1344.15 27.2059 L1344.15 72.576 L1336.7 72.576 L1336.7 65.6084 Q1333.99 69.7404 1330.38 71.7658 Q1326.82 73.7508 1322.08 73.7508 Q1314.26 73.7508 1310.21 68.8897 Q1306.16 64.0286 1306.16 54.671 M1324.91 26.1121 L1324.91 26.1121 Z" fill="#000000" fill-rule="nonzero" fill-opacity="1"></path><path clip-path="url(#clip620)" d="M1398.31 48.0275 L1398.31 51.6733 L1364.04 51.6733 Q1364.53 59.3701 1368.66 63.421 Q1372.83 67.4314 1380.25 67.4314 Q1384.54 67.4314 1388.55 66.3781 Q1392.6 65.3249 1396.57 63.2184 L1396.57 70.267 Q1392.56 71.9684 1388.35 72.8596 Q1384.14 73.7508 1379.8 73.7508 Q1368.95 73.7508 1362.59 67.4314 Q1356.27 61.1119 1356.27 50.3365 Q1356.27 39.1965 1362.26 32.6746 Q1368.3 26.1121 1378.51 26.1121 Q1387.66 26.1121 1392.97 32.0264 Q1398.31 37.9003 1398.31 48.0275 M1390.86 45.84 Q1390.78 39.7232 1387.42 36.0774 Q1384.1 32.4315 1378.59 32.4315 Q1372.35 32.4315 1368.58 35.9558 Q1364.85 39.4801 1364.29 45.8805 L1390.86 45.84 Z" fill="#000000" fill-rule="nonzero" fill-opacity="1"></path><path clip-path="url(#clip620)" d="M1461.79 17.6457 Q1452.88 17.6457 1447.61 24.2892 Q1442.39 30.9327 1442.39 42.3968 Q1442.39 53.8203 1447.61 60.4638 Q1452.88 67.1073 1461.79 67.1073 Q1470.7 67.1073 1475.89 60.4638 Q1481.11 53.8203 1481.11 42.3968 Q1481.11 30.9327 1475.89 24.2892 Q1470.7 17.6457 1461.79 17.6457 M1461.79 11.0023 Q1474.51 11.0023 1482.13 19.5497 Q1489.74 28.0566 1489.74 42.3968 Q1489.74 56.6965 1482.13 65.2439 Q1474.51 73.7508 1461.79 73.7508 Q1449.03 73.7508 1441.38 65.2439 Q1433.76 56.737 1433.76 42.3968 Q1433.76 28.0566 1441.38 19.5497 Q1449.03 11.0023 1461.79 11.0023 Z" fill="#000000" fill-rule="nonzero" fill-opacity="1"></path><path clip-path="url(#clip620)" d="M1496.87 27.2059 L1504.77 27.2059 L1518.95 65.2844 L1533.13 27.2059 L1541.03 27.2059 L1524.01 72.576 L1513.89 72.576 L1496.87 27.2059 Z" fill="#000000" fill-rule="nonzero" fill-opacity="1"></path><path clip-path="url(#clip620)" d="M1590.12 48.0275 L1590.12 51.6733 L1555.85 51.6733 Q1556.34 59.3701 1560.47 63.421 Q1564.64 67.4314 1572.06 67.4314 Q1576.35 67.4314 1580.36 66.3781 Q1584.41 65.3249 1588.38 63.2184 L1588.38 70.267 Q1584.37 71.9684 1580.16 72.8596 Q1575.95 73.7508 1571.61 73.7508 Q1560.76 73.7508 1554.4 67.4314 Q1548.08 61.1119 1548.08 50.3365 Q1548.08 39.1965 1554.07 32.6746 Q1560.11 26.1121 1570.32 26.1121 Q1579.47 26.1121 1584.78 32.0264 Q1590.12 37.9003 1590.12 48.0275 M1582.67 45.84 Q1582.59 39.7232 1579.23 36.0774 Q1575.91 32.4315 1570.4 32.4315 Q1564.16 32.4315 1560.39 35.9558 Q1556.66 39.4801 1556.1 45.8805 L1582.67 45.84 Z" fill="#000000" fill-rule="nonzero" fill-opacity="1"></path><path clip-path="url(#clip620)" d="M1628.65 34.1734 Q1627.39 33.4443 1625.89 33.1202 Q1624.44 32.7556 1622.65 32.7556 Q1616.33 32.7556 1612.93 36.8875 Q1609.57 40.9789 1609.57 48.6757 L1609.57 72.576 L1602.07 72.576 L1602.07 27.2059 L1609.57 27.2059 L1609.57 34.2544 Q1611.92 30.1225 1615.69 28.1376 Q1619.45 26.1121 1624.84 26.1121 Q1625.61 26.1121 1626.54 26.2337 Q1627.47 26.3147 1628.61 26.5172 L1628.65 34.1734 Z" fill="#000000" fill-rule="nonzero" fill-opacity="1"></path><path clip-path="url(#clip620)" d="M1654.78 12.096 L1705.94 12.096 L1705.94 18.9825 L1684.47 18.9825 L1684.47 72.576 L1676.25 72.576 L1676.25 18.9825 L1654.78 18.9825 L1654.78 12.096 Z" fill="#000000" fill-rule="nonzero" fill-opacity="1"></path><path clip-path="url(#clip620)" d="M1710.96 27.2059 L1718.42 27.2059 L1718.42 72.576 L1710.96 72.576 L1710.96 27.2059 M1710.96 9.54393 L1718.42 9.54393 L1718.42 18.9825 L1710.96 18.9825 L1710.96 9.54393 Z" fill="#000000" fill-rule="nonzero" fill-opacity="1"></path><path clip-path="url(#clip620)" d="M1769.34 35.9153 Q1772.13 30.8922 1776.02 28.5022 Q1779.91 26.1121 1785.18 26.1121 Q1792.26 26.1121 1796.11 31.0947 Q1799.96 36.0368 1799.96 45.1919 L1799.96 72.576 L1792.47 72.576 L1792.47 45.4349 Q1792.47 38.913 1790.16 35.7533 Q1787.85 32.5936 1783.11 32.5936 Q1777.32 32.5936 1773.95 36.4419 Q1770.59 40.2903 1770.59 46.9338 L1770.59 72.576 L1763.1 72.576 L1763.1 45.4349 Q1763.1 38.8725 1760.79 35.7533 Q1758.48 32.5936 1753.66 32.5936 Q1747.95 32.5936 1744.59 36.4824 Q1741.22 40.3308 1741.22 46.9338 L1741.22 72.576 L1733.73 72.576 L1733.73 27.2059 L1741.22 27.2059 L1741.22 34.2544 Q1743.78 30.082 1747.34 28.0971 Q1750.9 26.1121 1755.81 26.1121 Q1760.75 26.1121 1764.19 28.6237 Q1767.68 31.1352 1769.34 35.9153 Z" fill="#000000" fill-rule="nonzero" fill-opacity="1"></path><path clip-path="url(#clip620)" d="M1853.64 48.0275 L1853.64 51.6733 L1819.37 51.6733 Q1819.85 59.3701 1823.98 63.421 Q1828.16 67.4314 1835.57 67.4314 Q1839.86 67.4314 1843.87 66.3781 Q1847.92 65.3249 1851.89 63.2184 L1851.89 70.267 Q1847.88 71.9684 1843.67 72.8596 Q1839.46 73.7508 1835.12 73.7508 Q1824.27 73.7508 1817.91 67.4314 Q1811.59 61.1119 1811.59 50.3365 Q1811.59 39.1965 1817.58 32.6746 Q1823.62 26.1121 1833.83 26.1121 Q1842.98 26.1121 1848.29 32.0264 Q1853.64 37.9003 1853.64 48.0275 M1846.18 45.84 Q1846.1 39.7232 1842.74 36.0774 Q1839.42 32.4315 1833.91 32.4315 Q1827.67 32.4315 1823.9 35.9558 Q1820.18 39.4801 1819.61 45.8805 L1846.18 45.84 Z" fill="#000000" fill-rule="nonzero" fill-opacity="1"></path><polyline clip-path="url(#clip622)" style="stroke:#009af9; stroke-linecap:round; stroke-linejoin:round; stroke-width:4; stroke-opacity:1; fill:none" points="512.333,1326.97 554.422,1316.08 596.511,1304.7 638.601,1292.81 680.69,1280.38 722.779,1267.39 764.869,1253.82 806.958,1239.64 849.047,1224.82 891.136,1209.33 933.226,1193.15 975.315,1176.23 1017.4,1158.56 1059.49,1140.09 1101.58,1120.79 1143.67,1100.62 1185.76,1079.55 1227.85,1057.52 1269.94,1034.51 1312.03,1010.45 1354.12,985.321 1396.21,959.056 1438.3,931.61 1480.39,902.928 1522.48,876.286 1564.57,848.579 1606.65,819.763 1648.74,789.794 1690.83,758.627 1732.92,726.212 1775.01,692.502 1817.1,657.443 1859.19,620.981 1901.28,583.061 1943.37,543.625 1985.46,502.611 2027.55,459.956 2069.64,415.595 2111.73,369.46 2153.82,321.479 2195.9,271.579 2237.99,219.683 "></polyline>
</svg>